<?xml version="1.0" encoding="UTF-8"?>
<svg version="1.1" xmlns="http://www.w3.org/2000/svg" width="1024" height="1024">
<path d="M0 0 C337.92 0 675.84 0 1024 0 C1024 337.92 1024 675.84 1024 1024 C686.08 1024 348.16 1024 0 1024 C0 686.08 0 348.16 0 0 Z " fill="#FDFDFD" transform="translate(0,0)"/>
<path d="M0 0 C4.6078625 1.34712622 8.27266174 3.23272539 12.3125 5.8125 C16.91529229 8.72724928 21.5594984 11.47083311 26.390625 13.9921875 C28 15 28 15 29 17 C31.30965848 18.05352843 33.6429774 19.05719096 36 20 C36 20.66 36 21.32 36 22 C36.85980469 22.2578125 37.71960938 22.515625 38.60546875 22.78125 C42.11722128 24.04208635 45.09881286 25.61100831 48.3125 27.5 C49.36050781 28.1084375 50.40851562 28.716875 51.48828125 29.34375 C54 31 54 31 55 33 C56.66227336 33.73140028 58.32771568 34.45684173 60.01171875 35.13671875 C63.16210224 36.50456698 66.04632459 38.25190639 69 40 C69 40.66 69 41.32 69 42 C69.94875 42.309375 70.8975 42.61875 71.875 42.9375 C75 44 75 44 77 45 C77 45.66 77 46.32 77 47 C78.65 47.33 80.3 47.66 82 48 C82 48.66 82 49.32 82 50 C83.65 50.33 85.3 50.66 87 51 C87 51.66 87 52.32 87 53 C87.8971875 53.1546875 87.8971875 53.1546875 88.8125 53.3125 C91 54 91 54 92.34375 55.40625 C94.31198583 57.30021278 96.17678042 58.13227003 98.6875 59.1875 C99.49574219 59.53167969 100.30398438 59.87585938 101.13671875 60.23046875 C102.05904297 60.61138672 102.05904297 60.61138672 103 61 C103 61.66 103 62.32 103 63 C104.17433594 63.24621094 105.34867188 63.49242187 106.55859375 63.74609375 C110.83974533 64.82132035 114.36166958 66.69461505 118.0625 69.0625 C119.37477614 69.87666301 120.68728278 70.6904546 122 71.50390625 C122.66257812 71.91914551 123.32515625 72.33438477 124.0078125 72.76220703 C126.54870907 74.34092586 129.1191611 75.86652627 131.69262695 77.39135742 C137.32875696 80.73300338 142.88101394 84.17957851 148.375 87.75 C152.68534151 90.55024381 157.02707288 93.19899312 161.55078125 95.640625 C166.80555573 98.55715055 171.91930169 101.7261033 177.06347656 104.83251953 C179.4497136 106.27112083 181.84114081 107.70091388 184.2331543 109.12988281 C186.05757662 110.22196482 187.87847566 111.31976505 189.69921875 112.41796875 C193.02290944 114.42083902 196.36360631 116.39354992 199.70703125 118.36328125 C201.74240217 119.57516037 203.77755844 120.78740006 205.8125 122 C206.76705078 122.5571167 207.72160156 123.1142334 208.70507812 123.68823242 C222.727141 132.09198263 233.26704429 143.05150942 238 159 C239.75718028 166.12956728 240.28846527 172.88795129 240.26069641 180.2134552 C240.26452196 181.29905202 240.26834751 182.38464884 240.27228898 183.50314254 C240.28255546 187.11778646 240.27863889 190.73226966 240.2746582 194.34692383 C240.2790082 196.94796393 240.28419231 199.54900275 240.29014587 202.15003967 C240.30285768 208.46836552 240.30469095 214.78664879 240.30234561 221.10498527 C240.30055822 226.24432347 240.30232109 231.3836488 240.30657005 236.52298546 C240.30716524 237.25612325 240.30776043 237.98926104 240.30837366 238.74461513 C240.30958549 240.23428729 240.31079962 241.72395944 240.31201603 243.21363159 C240.32287817 257.16605903 240.32073546 271.11846226 240.31463119 285.07089105 C240.30946411 297.81349366 240.32071431 310.55601978 240.33972941 323.29860727 C240.35913781 336.40600769 240.36735849 349.51337197 240.36360615 362.62078685 C240.36169854 369.97023232 240.36413852 377.31961271 240.37832069 384.6690464 C240.39152767 391.58266607 240.3889338 398.49613064 240.37590981 405.40974998 C240.37354927 407.94085111 240.37625986 410.47196306 240.38453293 413.00305176 C240.44624149 433.35685558 239.79617419 450.82580544 224.91015625 466.3828125 C213.39475981 476.73894084 201.90487598 482.68539368 186.71533203 485.4921875 C183.95292531 486.00880375 181.21114642 486.59153656 178.46484375 487.1875 C164.28183353 490.17877032 149.97381219 492.24471191 135.625 494.25 C134.69203094 494.38082977 133.75906189 494.51165955 132.79782104 494.64645386 C118.97865244 496.57281752 105.28152434 498.1677724 91.3125 498.375 C90.34505859 498.41238281 89.37761719 498.44976563 88.38085938 498.48828125 C80.48294636 498.58427209 74.98149989 496.50800813 69.04150391 491.27441406 C55.04974251 477.42613689 50.8268193 452.57263798 50.67016602 433.85717773 C50.73999192 419.32650522 51.5683502 405.32892105 54 391 C54.31469238 389.1422998 54.31469238 389.1422998 54.63574219 387.24707031 C59.71626114 357.81449614 67.10478515 328.84998473 74.55932617 299.94458008 C77.71302405 287.6490886 80.45567347 275.35434247 82.70581055 262.86157227 C83.19114357 260.16727293 83.68741402 257.47516268 84.18554688 254.78320312 C92.53831233 209.35643323 97.7185262 164.8097165 79.234375 121.171875 C78.16095592 118.41359558 77.46000668 115.91337563 77 113 C75.515 112.505 75.515 112.505 74 112 C72.17151201 109.40964201 70.95910096 106.89452354 69.8125 103.9375 C67.86167512 99.1395253 64.72272505 95.07050968 61.7421875 90.8671875 C60.0692142 88.11390857 59.38279983 86.16679856 59 83 C58.34 83 57.68 83 57 83 C55.2734375 80.4453125 55.2734375 80.4453125 53.375 77.125 C52.74335937 76.03445313 52.11171875 74.94390625 51.4609375 73.8203125 C50 71 50 71 50 69 C49.01 68.67 48.02 68.34 47 68 C44 63.66666667 44 63.66666667 44 61 C43.34 61 42.68 61 42 61 C42 60.01 42 59.02 42 58 C41.34 58 40.68 58 40 58 C38.41383202 55.82206934 36.94573511 53.64410091 35.5 51.375 C31.53658406 45.26320409 27.42019856 39.30989102 23.04882812 33.48193359 C20 29.32477544 20 29.32477544 20 26 C19.071875 25.6596875 19.071875 25.6596875 18.125 25.3125 C15.3592875 23.60426581 14.91818449 22.06061498 14 19 C14 18.34 14 17.68 14 17 C12.35648543 15.63823078 10.68477344 14.31037934 9 13 C5.37347579 9.63883122 2.54788167 6.24646945 0 2 C0 1.34 0 0.68 0 0 Z " fill="#D3B121" transform="translate(564,206)"/>
<path d="M0 0 C4.16287138 2.64771039 8.2760746 5.36593566 12.37109375 8.1171875 C13.12165039 8.62072754 13.87220703 9.12426758 14.64550781 9.64306641 C26.39998673 17.55482851 37.93952137 25.74703407 49.37109375 34.1171875 C50.15516602 34.69114258 50.93923828 35.26509766 51.74707031 35.85644531 C62.09305666 43.43903587 72.38208489 51.09572798 82.63085938 58.80908203 C85.10275141 60.66716249 87.58134907 62.51625186 90.05859375 64.3671875 C102.58196961 73.75971939 115.0141631 83.27604561 127.41015625 92.8359375 C129.44348271 94.40251092 131.48012623 95.96478553 133.51953125 97.5234375 C140.00764227 102.48412263 146.41386947 107.53544871 152.78027344 112.65136719 C158.38413327 117.14658087 164.06447313 121.53516972 169.77392578 125.89501953 C171.40193599 127.14078827 173.02579154 128.39178499 174.6484375 129.64453125 C180.70049567 134.31650064 186.77905211 138.95018073 192.90625 143.5234375 C195.56879453 145.51180956 198.21916403 147.5157713 200.8671875 149.5234375 C213.30618784 158.93479948 225.83449115 168.32471729 238.95166016 176.78076172 C239.77714355 177.31330566 240.60262695 177.84584961 241.453125 178.39453125 C242.20440674 178.87011475 242.95568848 179.34569824 243.72973633 179.83569336 C244.27138428 180.25858643 244.81303223 180.68147949 245.37109375 181.1171875 C245.37109375 181.7771875 245.37109375 182.4371875 245.37109375 183.1171875 C194.76983722 184.23202547 146.07835131 159.09600672 103.37109375 134.1171875 C102.28747559 133.48619141 101.20385742 132.85519531 100.08740234 132.20507812 C78.12812805 119.39681853 56.76126599 105.74820786 35.52978516 91.77612305 C34.94414795 91.39102066 34.35851074 91.00591827 33.75512695 90.60914612 C32.60762635 89.85428197 31.4606418 89.09863268 30.31420898 88.34214783 C25.69919971 85.30585771 21.01234315 82.39399534 16.29174805 79.52514648 C15.65793213 79.06052002 15.02411621 78.59589355 14.37109375 78.1171875 C14.37109375 77.4571875 14.37109375 76.7971875 14.37109375 76.1171875 C15.82885742 74.66308594 15.82885742 74.66308594 17.8515625 72.9765625 C22.25443491 69.23232643 26.47803283 65.33050176 30.68359375 61.3671875 C31.38548828 60.70847656 32.08738281 60.04976562 32.81054688 59.37109375 C35.70105461 56.65418181 38.57833352 53.93497341 41.37109375 51.1171875 C39.90436529 47.25035792 38.0276437 45.94546248 34.37109375 44.1171875 C22.12420566 39.47792541 8.4427867 42.88787192 -4.12890625 44.8046875 C-6.91099285 45.21852656 -9.69356412 45.62898238 -12.47621155 46.03903198 C-14.37083824 46.31825343 -16.26531856 46.59846984 -18.15965271 46.87966919 C-24.5299093 47.82189935 -30.90551428 48.71127019 -37.2890625 49.55859375 C-38.13193817 49.67059616 -38.97481384 49.78259857 -39.8432312 49.897995 C-43.07327735 50.3258536 -46.30353616 50.75189066 -49.53466797 51.17147827 C-62.50418587 51.76906965 -62.50418587 51.76906965 -73.62890625 56.1171875 C-73.73069647 67.23268006 -71.12038129 78.35416476 -69.14379883 89.23510742 C-68.05952256 95.3042783 -67.07166368 101.38985727 -66.08374023 107.4753418 C-63.12386208 125.87492268 -63.12386208 125.87492268 -59.06640625 144.0546875 C-58.88102295 144.7979126 -58.69563965 145.5411377 -58.50463867 146.30688477 C-57.26118867 150.88404404 -55.36537535 154.27270023 -52.62890625 158.1171875 C-52.29890625 159.1071875 -51.96890625 160.0971875 -51.62890625 161.1171875 C-49.55239294 162.54926565 -48.25086908 163.14165296 -45.71728516 163.04199219 C-42.45307802 161.59649106 -41.6584598 159.18582813 -40.02734375 156.0703125 C-39.70480621 155.46209656 -39.38226868 154.85388062 -39.04995728 154.22723389 C-38.02183675 152.28029509 -37.01309512 150.32399413 -36.00390625 148.3671875 C-35.31758929 147.06448021 -34.63010184 145.76238886 -33.94140625 144.4609375 C-29.97055234 136.93573396 -29.97055234 136.93573396 -26.62890625 129.1171875 C-23.76185101 130.47028749 -21.24818875 132.00900424 -18.6875 133.875 C-17.94443604 134.41431152 -17.20137207 134.95362305 -16.43579102 135.50927734 C-15.65389404 136.0811377 -14.87199707 136.65299805 -14.06640625 137.2421875 C-13.25937256 137.82822754 -12.45233887 138.41426758 -11.62084961 139.01806641 C-8.20092616 141.50310344 -4.78738419 143.99648397 -1.38671875 146.5078125 C3.66225309 150.22502655 8.77276587 153.74323257 14.08984375 157.06640625 C16.70408683 158.70030818 19.30563982 160.35027742 21.90234375 162.01171875 C23.55856396 163.06775506 25.21481415 164.12374435 26.87109375 165.1796875 C27.64195312 165.67436523 28.4128125 166.16904297 29.20703125 166.67871094 C35.1220944 170.43537352 41.20100317 173.80049508 47.37109375 177.1171875 C49.20568 178.12663251 51.03901979 179.13834623 52.87109375 180.15234375 C54.23234375 180.90161133 54.23234375 180.90161133 55.62109375 181.66601562 C57.45607969 182.67603985 59.28941492 183.68906878 61.12109375 184.70507812 C73.11448358 191.28951729 85.20199869 196.19423118 98.26953125 200.14453125 C100.72437916 200.9143765 103.10400172 201.73958549 105.49609375 202.6796875 C118.8112056 207.79446951 132.03294044 209.29108144 146.18359375 209.3671875 C147.23812744 209.37645264 148.29266113 209.38571777 149.37915039 209.39526367 C158.14593477 209.36114126 166.70942401 208.36349361 175.37109375 207.1171875 C176.10508392 207.0127533 176.8390741 206.90831909 177.5953064 206.80072021 C183.422503 205.96615805 189.24132277 205.0805877 195.05859375 204.1796875 C195.99076721 204.03600739 196.92294067 203.89232727 197.88336182 203.74429321 C218.87088141 200.49280151 239.75920145 196.7007164 260.64331055 192.84985352 C271.46422452 190.86039764 282.23172868 188.90448732 293.15429688 187.56762695 C298.98426116 186.75127266 304.6993215 185.43271617 310.43359375 184.1171875 C311.60341797 183.85679687 312.77324219 183.59640625 313.97851562 183.328125 C319.21716024 182.14607186 324.28910126 180.8657481 329.37109375 179.1171875 C336.7456325 176.90870042 336.7456325 176.90870042 340.37109375 178.1171875 C342.31263823 177.64994851 342.31263823 177.64994851 344.37109375 176.8046875 C349.60610349 174.92456868 354.89006264 173.98800553 360.37109375 173.1171875 C360.37109375 173.7771875 360.37109375 174.4371875 360.37109375 175.1171875 C355.48437862 178.69283272 350.12441903 182.19941241 344.37109375 184.1171875 C344.37109375 184.7771875 344.37109375 185.4371875 344.37109375 186.1171875 C343.25734375 186.5709375 342.14359375 187.0246875 340.99609375 187.4921875 C337.40910367 188.84184736 337.40910367 188.84184736 335.37109375 191.1171875 C332.70980691 192.66245083 331.5219338 193.1171875 328.37109375 193.1171875 C328.04109375 194.1071875 327.71109375 195.0971875 327.37109375 196.1171875 C325.38386107 196.82099907 323.38331422 197.4883686 321.37109375 198.1171875 C321.04109375 198.7771875 320.71109375 199.4371875 320.37109375 200.1171875 C315.40563134 204.48077568 310.12144373 209.1171875 303.37109375 209.1171875 C303.04109375 210.1071875 302.71109375 211.0971875 302.37109375 212.1171875 C300.00032489 213.78344921 297.67382628 215.27873331 295.18359375 216.7421875 C294.19262695 217.35320312 294.19262695 217.35320312 293.18164062 217.9765625 C289.24762841 220.32221243 286.0212946 221.69772926 281.37109375 222.1171875 C281.04109375 223.1071875 280.71109375 224.0971875 280.37109375 225.1171875 C278.63696289 226.4675293 278.63696289 226.4675293 276.40625 227.81640625 C275.20645508 228.54633789 275.20645508 228.54633789 273.98242188 229.29101562 C273.14130859 229.79052734 272.30019531 230.29003906 271.43359375 230.8046875 C270.59634766 231.31580078 269.75910156 231.82691406 268.89648438 232.35351562 C262.65049754 236.1171875 262.65049754 236.1171875 260.37109375 236.1171875 C260.37109375 236.7771875 260.37109375 237.4371875 260.37109375 238.1171875 C259.6440625 238.46765137 258.91703125 238.81811523 258.16796875 239.17919922 C250.66778233 242.85356939 243.49877989 246.89493293 236.37109375 251.2421875 C234.16278915 252.57817249 231.95445548 253.91410944 229.74609375 255.25 C228.66457031 255.90645508 227.58304688 256.56291016 226.46875 257.23925781 C222.11198773 259.8805106 217.74201959 262.49946719 213.37109375 265.1171875 C211.76293385 266.08188626 210.15486255 267.04673274 208.546875 268.01171875 C204.73177083 270.30078125 200.91666667 272.58984375 197.1015625 274.87890625 C196.02414795 275.52537109 194.9467334 276.17183594 193.83666992 276.83789062 C191.66631731 278.14006987 189.49590795 279.44215454 187.32543945 280.74414062 C182.18214593 283.82955721 177.0398565 286.91659844 171.90136719 290.01000977 C170.12788105 291.07555821 168.35137199 292.13589493 166.57421875 293.1953125 C164.46935907 294.45822831 162.37511586 295.73904172 160.29296875 297.0390625 C145.15726345 306.31067255 131.28811746 309.40904839 113.765625 306.5234375 C104.54227316 304.04860023 96.48595146 298.99384285 88.37109375 294.1171875 C86.4128615 292.95035118 84.45452115 291.78369625 82.49609375 290.6171875 C77.13508834 287.4155452 71.78548882 284.19531278 66.43945312 280.96875 C61.92013101 278.24162246 57.3964207 275.52183653 52.87109375 272.8046875 C52.0522168 272.31274902 51.23333984 271.82081055 50.38964844 271.31396484 C45.40123859 268.32152164 40.39317079 265.36517888 35.37109375 262.4296875 C28.50336234 258.4133352 21.70391034 254.28815765 14.91137695 250.14633179 C4.62049077 243.87135412 -5.71598655 237.6876033 -16.12890625 231.6171875 C-26.82784577 225.37821695 -37.44664003 219.0203097 -48.02148438 212.57348633 C-49.18096715 211.86666242 -50.34047245 211.15987546 -51.5 210.453125 C-52.07720795 210.10128647 -52.65441589 209.74944794 -53.24911499 209.38694763 C-60.18959836 205.1605196 -67.15878633 200.98199329 -74.12890625 196.8046875 C-74.76655914 196.42242004 -75.40421204 196.04015259 -76.06118774 195.64630127 C-81.18585935 192.5742265 -86.31170915 189.50412299 -91.43847656 186.43554688 C-96.24821456 183.55672559 -101.05554984 180.67399413 -105.85839844 177.78369141 C-107.92604181 176.53997148 -109.99445686 175.29757838 -112.06347656 174.05615234 C-115.21089995 172.16704646 -118.3552311 170.27286858 -121.49798584 168.37600708 C-122.73296134 167.63156335 -123.96881555 166.88857503 -125.20562744 166.14718628 C-131.93348726 162.11265812 -138.47957915 158.00334492 -144.62890625 153.1171875 C-145.99015625 152.09431641 -145.99015625 152.09431641 -147.37890625 151.05078125 C-156.67896085 143.05854682 -162.85821328 130.12565521 -163.90112305 117.93530273 C-164.71309875 100.68893873 -165.23376072 86.47401002 -155.26367188 71.67089844 C-152.29579777 67.03470322 -149.82644279 62.12218549 -147.27368164 57.24905396 C-145.67799401 54.21634197 -144.05086395 51.20062502 -142.42578125 48.18359375 C-140.034307 43.73629801 -137.64944454 39.28552535 -135.26953125 34.83203125 C-124.75347537 15.21193002 -113.80157256 -4.23349092 -101.62890625 -22.8828125 C-100.92121094 -23.9759375 -100.21351563 -25.0690625 -99.484375 -26.1953125 C-79.39312282 -55.69833674 -21.06810862 -13.21212525 0 0 Z " fill="#B636BD" transform="translate(384.62890625,525.8828125)"/>
<path d="M0 0 C0.61246582 0.28907227 1.22493164 0.57814453 1.85595703 0.87597656 C11.44963051 5.40806506 17.21841088 11.00286776 23 20 C23.75556244 21.11309655 24.5147635 22.22373079 25.27734375 23.33203125 C35.09683114 37.69690661 44.59101237 52.40015325 53.08203125 67.58984375 C55.31086854 71.55272554 57.62120481 75.46286853 59.9375 79.375 C61.20808984 81.53429508 62.47634263 83.69493736 63.74316406 85.85644531 C64.57404153 87.27352071 65.40669448 88.68955673 66.24121094 90.10449219 C73.00269177 101.60821258 79.32757251 112.59016545 79.859375 126.24609375 C78.52520919 130.52148872 75.51327174 132.39363483 72 135 C71.00782471 135.74987183 71.00782471 135.74987183 69.99560547 136.51489258 C67.86825369 138.09738542 65.72001844 139.6464154 63.5625 141.1875 C62.77464111 141.75283447 61.98678223 142.31816895 61.17504883 142.90063477 C53.522094 148.37405264 45.79343222 153.72895255 38 159 C37.22350098 159.52674316 36.44700195 160.05348633 35.64697266 160.59619141 C15.20532799 174.4380243 -5.75903748 187.42522203 -27 200 C-28.35931641 200.80920898 -28.35931641 200.80920898 -29.74609375 201.63476562 C-44.9257604 210.66135752 -60.34560354 219.13617693 -75.95654297 227.38427734 C-78.50266701 228.73597387 -81.03805988 230.10375205 -83.56640625 231.48828125 C-95.60053021 238.05008576 -108.06307689 243.7016696 -120.52099609 249.40087891 C-123.71597507 250.86944819 -126.90075486 252.35750184 -130.08203125 253.85546875 C-145.80655101 261.22662579 -161.828191 267.69144683 -178 274 C-179.55092252 274.61422674 -181.10172883 275.22874714 -182.65234375 275.84375 C-201.44229581 283.19817236 -221.25960059 288.84412644 -241 293 C-239.53027809 289.60881107 -237.63628284 287.37885867 -235.03515625 284.76953125 C-234.24085205 283.97111816 -233.44654785 283.17270508 -232.62817383 282.35009766 C-231.78150146 281.51269043 -230.9348291 280.6752832 -230.0625 279.8125 C-229.19584717 278.95188965 -228.32919434 278.0912793 -227.4362793 277.20458984 C-221.53677356 271.39620256 -215.54814705 266.06537395 -209 261 C-207.79003158 260.01662381 -206.58324212 259.02932884 -205.37890625 258.0390625 C-195.75775157 250.12809696 -185.93731991 242.50853779 -176 235 C-174.97519531 234.22140625 -173.95039063 233.4428125 -172.89453125 232.640625 C-153.72297707 218.14957439 -134.10342566 204.16943878 -114 191 C-113.3512793 190.57396484 -112.70255859 190.14792969 -112.03417969 189.70898438 C-100.92659829 182.42620881 -89.67809986 175.37525504 -78.33935547 168.45800781 C-76.78868413 167.49154891 -75.25570056 166.49607241 -73.74267578 165.47167969 C-73.04513184 165.00407227 -72.34758789 164.53646484 -71.62890625 164.0546875 C-71.02248291 163.63429199 -70.41605957 163.21389648 -69.79125977 162.78076172 C-68 162 -68 162 -65.92553711 161.99584961 C-62.8903727 163.57866072 -62.61304175 165.8262417 -61.5625 169.01171875 C-61.14226562 170.24470703 -60.72203125 171.47769531 -60.2890625 172.74804688 C-59.85817815 174.06080568 -59.42850052 175.37396115 -59 176.6875 C-58.15684219 179.2370638 -57.2998018 181.78095745 -56.4375 184.32421875 C-56.06496094 185.45947998 -55.69242187 186.59474121 -55.30859375 187.7644043 C-53.8878166 191.27738184 -52.19669587 193.92932801 -50 197 C-44.66144176 195.58685223 -41.9952342 192.41013477 -39 188 C-34.35300905 178.57026975 -31.42529707 168.38438231 -28.3125 158.375 C-27.79140731 156.7138209 -27.27016469 155.05268882 -26.7487793 153.39160156 C-22.69143175 140.41856059 -18.81228364 127.39438641 -15.03442383 114.33740234 C-14.8359082 113.65296051 -14.63739258 112.96851868 -14.43286133 112.26333618 C-13.90025076 110.42451132 -13.37054885 108.58484466 -12.84106445 106.74511719 C-12 104 -12 104 -11 102 C-10.9310528 100.62657169 -10.91532292 99.24997898 -10.9375 97.875 C-10.9684375 95.956875 -10.9684375 95.956875 -11 94 C-19.31274479 89.8152887 -28.00211778 87.80781669 -37 85.6875 C-38.63733551 85.29568828 -40.27462323 84.90367687 -41.91186523 84.51147461 C-52.9313991 81.88804499 -63.98233652 79.41605496 -75.0625 77.0625 C-75.73579346 76.91920258 -76.40908691 76.77590515 -77.1027832 76.62826538 C-100.67620128 71.03308054 -100.67620128 71.03308054 -124 75 C-123.53707987 79.75779019 -121.63272766 81.91206222 -118.375 85.3125 C-117.47136719 86.2715625 -116.56773437 87.230625 -115.63671875 88.21875 C-114.76660156 89.1365625 -113.89648438 90.054375 -113 91 C-108.89735549 95.58115563 -104.91332545 100.25657521 -101 105 C-103.47088136 107.75769861 -106.1849797 109.40190769 -109.390625 111.23046875 C-110.48181641 111.86082031 -111.57300781 112.49117188 -112.69726562 113.140625 C-113.27645752 113.47384766 -113.85564941 113.80707031 -114.45239258 114.15039062 C-145.75541159 132.21031521 -177.30506834 153.9132134 -202.71484375 179.76171875 C-205 182 -205 182 -207.1875 183.0625 C-209.57223936 184.29598588 -209.81833103 185.61533229 -211 188 C-212.01570435 189.31218021 -213.06027068 190.60227705 -214.125 191.875 C-224.3383794 205.0034918 -229.99368257 220.13221125 -236.15576172 235.43164062 C-239.32941169 243.30541892 -242.5528437 251.15901094 -245.76779175 259.01599121 C-246.94029366 261.88182828 -248.11190064 264.74803011 -249.28344727 267.61425781 C-255.7594191 283.45065546 -262.30613641 299.25435195 -269 315 C-269.39064636 315.91987701 -269.39064636 315.91987701 -269.78918457 316.8583374 C-283.07907648 348.1368657 -297.65741822 378.67867001 -313 409 C-313.33 409 -313.66 409 -314 409 C-315.20097111 385.57882152 -315.25472236 362.15312642 -315.34375 338.70703125 C-315.34769587 337.6689752 -315.35164173 336.63091915 -315.35570717 335.56140685 C-315.3919912 325.74968702 -315.42334696 315.93795893 -315.44481659 306.12619495 C-315.47253316 293.65834664 -315.52376377 281.19105738 -315.60529089 268.7234419 C-315.66101703 259.90080635 -315.69003908 251.07832348 -315.6992898 242.25551814 C-315.70553776 237.00440237 -315.72358814 231.75395252 -315.77067566 226.50303078 C-315.81427901 221.58346416 -315.8248503 216.66493 -315.81004715 211.74520302 C-315.81037595 209.94362549 -315.82266411 208.14200372 -315.84789658 206.34060287 C-316.02827684 192.74640198 -316.02827684 192.74640198 -313.4797821 188.41809654 C-311.73999894 186.64470265 -310.08898847 185.32879492 -308 184 C-307.13117188 183.25234375 -306.26234375 182.5046875 -305.3671875 181.734375 C-304.13355469 180.75210938 -304.13355469 180.75210938 -302.875 179.75 C-298.65316947 176.3516584 -294.49806227 172.89134012 -290.375 169.375 C-282.72350149 162.89338659 -282.72350149 162.89338659 -279 159.875 C-278.34 159.33617187 -277.68 158.79734375 -277 158.2421875 C-272.26889482 155.30372764 -267.82848226 155.98907633 -262.6328125 157.14453125 C-256.88470115 159.01224102 -252.49286606 162.27746224 -248.5625 166.8125 C-245.70096747 172.65002635 -244.66672923 178.50121998 -245 185 C-244.34 185 -243.68 185 -243 185 C-243.02320313 184.40832031 -243.04640625 183.81664062 -243.0703125 183.20703125 C-243.17447278 178.64629888 -243.13114702 175.14389699 -241 171 C-240.70480469 170.36964844 -240.40960938 169.73929688 -240.10546875 169.08984375 C-237.79026006 164.7130358 -234.69495714 160.90660498 -230.3125 158.5625 C-228 158 -228 158 -225 158 C-225 156.35 -225 154.7 -225 153 C-225.59167969 152.85304688 -226.18335938 152.70609375 -226.79296875 152.5546875 C-232.5827383 150.91126188 -235.59606858 149.20601276 -239 144 C-241.16009316 139.67981369 -242.41567467 135.79146767 -243 131 C-242.05125 130.525625 -241.1025 130.05125 -240.125 129.5625 C-235.8141501 127.10531556 -232.43106426 123.85242118 -228.8046875 120.49609375 C-224.76052034 116.89689763 -220.466084 113.66819905 -216.15234375 110.40234375 C-213.41263361 108.31446056 -210.73082342 106.17759727 -208.0625 104 C-202.44157705 99.47406204 -196.55422509 95.34197922 -190.66357422 91.17871094 C-186.4092822 88.1643696 -182.19976233 85.0896689 -178 82 C-177.35675781 81.52739746 -176.71351563 81.05479492 -176.05078125 80.56787109 C-173.90505011 78.9878237 -171.7644879 77.40098852 -169.625 75.8125 C-168.94646973 75.31314941 -168.26793945 74.81379883 -167.56884766 74.29931641 C-163.73338079 71.43866167 -160.34982583 68.43417396 -157 65 C-155.33720673 63.9935725 -153.67016516 62.99414593 -152 62 C-151.07960938 61.14921875 -150.15921875 60.2984375 -149.2109375 59.421875 C-143.71795737 54.66401223 -137.28037473 51.28306683 -131 47.6875 C-129.14179873 46.61519853 -127.28481223 45.54081653 -125.427948 44.46620178 C-124.17765357 43.74269107 -122.92693666 43.01990999 -121.67581177 42.2978363 C-116.01335392 39.02439465 -110.40629047 35.66240884 -104.80371094 32.2878418 C-100.92173438 29.94997833 -97.0287975 27.63083321 -93.1328125 25.31640625 C-92.47978653 24.92842865 -91.82676056 24.54045105 -91.15394592 24.14071655 C-87.730198 22.10746807 -84.30521221 20.07631358 -80.87963867 18.04614258 C-80.1815358 17.63239883 -79.48343292 17.21865509 -78.76417542 16.79237366 C-77.38502341 15.97501964 -76.00582309 15.15774713 -74.62657166 14.34056091 C-70.94554094 12.1583298 -67.27130312 9.96552182 -63.60546875 7.7578125 C-42.55348705 -4.88070054 -23.25246566 -11.88952814 0 0 Z " fill="#16CCE2" transform="translate(536,189)"/>
<path d="M0 0 C17.71040828 6.07871156 35.87869097 25.00064683 44.09130859 41.73095703 C53.48430391 61.68402191 56.4626913 78.24097451 55.91357422 100.21166992 C55.85305447 102.80520306 55.8176276 105.39817289 55.78515625 107.9921875 C55.758237 108.77978958 55.73131775 109.56739166 55.70358276 110.37886047 C55.65587963 115.63697527 56.61610717 118.55473108 60.10546875 122.72265625 C62.98236116 124.83121716 62.98236116 124.83121716 66.16796875 126.47265625 C67.21082031 127.045 68.25367188 127.61734375 69.328125 128.20703125 C70.24464844 128.7071875 71.16117188 129.20734375 72.10546875 129.72265625 C73.09546875 130.38265625 74.08546875 131.04265625 75.10546875 131.72265625 C74.38101563 131.8928125 73.6565625 132.06296875 72.91015625 132.23828125 C67.2600192 133.65458227 62.68818453 134.97316152 58.10546875 138.72265625 C57.52023437 139.15835938 56.935 139.5940625 56.33203125 140.04296875 C50.08139802 145.29139074 48.86850398 152.02713281 47.10546875 159.72265625 C45.69631783 165.6797964 43.95260132 171.42892707 41.98046875 177.22265625 C41.56474609 178.45628906 41.56474609 178.45628906 41.140625 179.71484375 C40.46501225 181.71838502 39.78563538 183.72065636 39.10546875 185.72265625 C40.68908203 185.50609375 40.68908203 185.50609375 42.3046875 185.28515625 C54.28296707 183.7499004 66.03986824 183.50847399 78.10546875 183.72265625 C79.00012103 188.77623265 79.3221454 191.88085779 76.71484375 196.48828125 C70.98967977 204.43680988 63.78603565 210.25970105 55.578125 215.44921875 C51.24456414 218.22239099 47.16288892 221.33273107 43.04296875 224.41015625 C33.57424844 231.44932766 23.89578832 238.140464 14.10546875 244.72265625 C13.37682617 245.2134668 12.64818359 245.70427734 11.89746094 246.20996094 C9.84363745 247.59196426 7.78784416 248.97094714 5.73046875 250.34765625 C5.13008789 250.74952148 4.52970703 251.15138672 3.91113281 251.56542969 C2.31538594 252.62712718 0.71072784 253.67539654 -0.89453125 254.72265625 C-1.77367187 255.34914063 -2.6528125 255.975625 -3.55859375 256.62109375 C-5.89453125 257.72265625 -5.89453125 257.72265625 -7.77758789 257.06201172 C-16.41067481 251.59999871 -22.12915251 241.35027034 -27.58203125 232.97265625 C-28.36759748 231.77808248 -29.15365744 230.58383325 -29.94018555 229.38989258 C-32.27175695 225.84283716 -34.58466158 222.28386686 -36.89453125 218.72265625 C-37.54711914 217.71960449 -38.19970703 216.71655273 -38.87207031 215.68310547 C-45.47774515 205.50504527 -51.8769005 195.21238859 -58.08203125 184.78515625 C-58.6231958 183.87918701 -59.16436035 182.97321777 -59.72192383 182.03979492 C-67.34251589 169.10098172 -67.34251589 169.10098172 -67.20703125 162.47265625 C-67.20316406 161.6425 -67.19929687 160.81234375 -67.1953125 159.95703125 C-66.89453125 157.72265625 -66.89453125 157.72265625 -64.89453125 154.72265625 C-59.83897776 153.98756213 -56.22094672 155.66307016 -51.8515625 157.96875 C-51.20128586 158.299319 -50.55100922 158.629888 -49.88102722 158.97047424 C-47.81703811 160.02246049 -45.76198133 161.09063774 -43.70703125 162.16015625 C-41.63971333 163.22255803 -39.57070436 164.28157757 -37.50090027 165.33912659 C-36.21692544 165.99662804 -34.93471004 166.65757954 -33.65449524 167.32237244 C-31.08583252 168.64967846 -28.64379542 169.80623486 -25.89453125 170.72265625 C-25.724375 170.04203125 -25.55421875 169.36140625 -25.37890625 168.66015625 C-25.1365625 167.69078125 -24.89421875 166.72140625 -24.64453125 165.72265625 C-24.36738281 164.60375 -24.09023438 163.48484375 -23.8046875 162.33203125 C-23.22815381 160.04569165 -22.63393916 157.76367736 -22.015625 155.48828125 C-18.41630683 141.93436346 -16.05422762 128.11073534 -13.55151367 114.32128906 C-13.15173461 112.13149219 -12.74491753 109.94294476 -12.32543945 107.75683594 C-10.98879132 100.73577509 -10.10051898 93.70198844 -9.33203125 86.59765625 C-9.13806763 84.80618164 -9.13806763 84.80618164 -8.94018555 82.97851562 C-6.42860304 59.23498196 -5.63465199 35.34196318 -8.53442383 11.59179688 C-9.30176833 4.342993 -9.30176833 4.342993 -7.1328125 1.0390625 C-4.55155719 -0.47905799 -2.92248567 -0.64182521 0 0 Z " fill="#FDFDFC" transform="translate(711.89453125,384.27734375)"/>
<path d="M0 0 C0.99 0.495 0.99 0.495 2 1 C-3.42173913 5.66521739 -3.42173913 5.66521739 -6.375 7.375 C-8.74263996 8.84068188 -10.56523664 10.33287567 -12.625 12.1875 C-17.47428791 16.51819614 -22.71061678 20.23021859 -28 24 C-29.68885485 25.22730446 -31.37633811 26.45649837 -33.0625 27.6875 C-36.43850511 30.1506797 -39.828899 32.59116879 -43.23828125 35.0078125 C-51.51781097 40.89718386 -59.51207999 46.92841035 -67.19140625 53.58203125 C-71.01602121 56.87471089 -74.98671245 59.94287658 -79 63 C-80.75220797 64.34705214 -82.50302349 65.69590369 -84.25390625 67.04467773 C-86.83432183 69.03189033 -89.41714848 71.01595486 -92 73 C-89.58405384 83.22163976 -89.58405384 83.22163976 -82.51953125 90.47265625 C-80.04058665 91.72786233 -77.55100789 92.89975614 -75 94 C-75 94.66 -75 95.32 -75 96 C-73.02 96.495 -73.02 96.495 -71 97 C-72.32 97 -73.64 97 -75 97 C-75 97.66 -75 98.32 -75 99 C-77.90600261 100.25664978 -79.79604584 101 -83 101 C-83.226875 101.556875 -83.45375 102.11375 -83.6875 102.6875 C-85 105 -85 105 -87.5625 107.5 C-89.94706125 109.94570385 -90.58108759 110.75342883 -91 114 C-91.185625 114.61875 -91.37125 115.2375 -91.5625 115.875 C-92.10502756 118.14853898 -92.10502756 118.14853898 -92 121.125 C-92 124 -92 124 -93 126 C-93.66 126 -94.32 126 -95 126 C-95.15855469 124.99839844 -95.31710937 123.99679687 -95.48046875 122.96484375 C-96.98346609 112.39359678 -96.98346609 112.39359678 -103 104 C-109.16711624 99.76219861 -116.4356447 96.87048088 -124 98 C-127.18554526 99.84796825 -129.4581967 102.36460317 -132 105 C-133.5843683 106.31587635 -135.18967776 107.60685117 -136.8125 108.875 C-145.41683615 115.71636819 -153.83565122 122.640259 -161.8828125 130.12890625 C-164 132 -164 132 -165 132 C-165.56482575 117.48188639 -163.17134497 106.34665064 -153.875 94.9375 C-146.08710496 86.5719103 -135.79212349 80.87374232 -126.0625 75.0625 C-124.84433388 74.32986306 -123.62648599 73.59669678 -122.40893555 72.86303711 C-119.88120463 71.34034707 -117.35213204 69.8199202 -114.82226562 68.30078125 C-111.05577645 66.03656672 -107.29986488 63.75525409 -103.546875 61.46875 C-102.94327652 61.10106003 -102.33967804 60.73337006 -101.7177887 60.35453796 C-101.11877243 59.9896376 -100.51975616 59.62473724 -99.90258789 59.2487793 C-89.36553434 52.83006545 -78.79594007 46.4736926 -68.140625 40.25292969 C-63.961097 37.80660924 -59.79376864 35.33959472 -55.625 32.875 C-54.71419678 32.33673584 -53.80339355 31.79847168 -52.86499023 31.24389648 C-47.05534188 27.8094911 -41.24834156 24.37063114 -35.44340515 20.92826843 C-32.54087839 19.20709864 -29.63777678 17.48691825 -26.7331543 15.76928711 C-21.66981 12.77393002 -16.61157637 9.77193274 -11.578125 6.7265625 C-10.38473511 6.00956177 -10.38473511 6.00956177 -9.16723633 5.27807617 C-7.72301954 4.40977502 -6.28248219 3.53531218 -4.84643555 2.65356445 C-3.26611098 1.70766628 -1.63729448 0.84345473 0 0 Z " fill="#70F6FC" transform="translate(386,248)"/>
<path d="M0 0 C0.33 0 0.66 0 1 0 C1 2.97 1 5.94 1 9 C1.99 9.33 2.98 9.66 4 10 C5.17578125 12.14453125 5.17578125 12.14453125 6.3125 14.8125 C9.03896141 20.55198784 12.08334237 22.73188799 17.875 25.25 C18.57625 25.4975 19.2775 25.745 20 26 C20 26.66 20 27.32 20 28 C21.32 28.33 22.64 28.66 24 29 C22.68 29 21.36 29 20 29 C20 29.66 20 30.32 20 31 C17.09399739 32.25664978 15.20395416 33 12 33 C11.773125 33.556875 11.54625 34.11375 11.3125 34.6875 C10 37 10 37 7.4375 39.5 C5.05293875 41.94570385 4.41891241 42.75342883 4 46 C3.814375 46.61875 3.62875 47.2375 3.4375 47.875 C2.89497244 50.14853898 2.89497244 50.14853898 3 53.125 C3 56 3 56 2 58 C1.34 58 0.68 58 0 58 C-0.15855469 56.99839844 -0.31710937 55.99679687 -0.48046875 54.96484375 C-1.97510775 44.38619362 -1.97510775 44.38619362 -8 36 C-13.41060824 32.50928501 -18.57484021 30.41903216 -25 30 C-25 29.34 -25 28.68 -25 28 C-24.13117188 27.76925781 -23.26234375 27.53851563 -22.3671875 27.30078125 C-14.02600823 24.94024618 -8.17578154 23.20399983 -3.75 15.375 C-1.50005632 10.48137249 -0.74039874 5.29969621 0 0 Z " fill="#EEFCFD" transform="translate(291,316)"/>
<path d="M0 0 C1.54097286 2.93260034 2.69624592 5.88398861 3.8125 9 C5.99388965 14.40984634 8.13458822 16.7411555 13.54296875 19.1171875 C16.01321238 20.12758334 18.49313486 21.08487253 21 22 C18.8769909 23.08607642 16.75572358 24.10452212 14.5625 25.04296875 C8.45434081 27.7711557 5.56269243 29.76040105 3 36 C2.22514168 38.77138597 2.22514168 38.77138597 2 41 C1.34 41 0.68 41 0 41 C-0.32871094 40.19175781 -0.65742188 39.38351562 -0.99609375 38.55078125 C-3.93418049 31.95003895 -6.21123241 27.88000166 -12.8515625 24.76953125 C-14.88631345 24.04072046 -16.89202215 23.47214889 -19 23 C-19 22.34 -19 21.68 -19 21 C-18.33613281 20.76925781 -17.67226563 20.53851562 -16.98828125 20.30078125 C-9.51577161 17.55372478 -9.51577161 17.55372478 -4 12 C-2.43948466 8.06008504 -1.16293024 4.07350424 0 0 Z " fill="#CA44F7" transform="translate(287,735)"/>
<path d="M0 0 C1.65754868 2.48632302 2.46608498 4.1268687 3.375 6.875 C5.31826885 12.11797783 7.33271941 15.15120261 12.4375 17.75 C15.32480851 18.7630907 17.98378005 19.54299698 21 20 C18.782159 22.217841 17.64846726 22.50134426 14.6875 23.3125 C10.27165653 24.76321781 7.81046373 26.14564975 5 30 C3.45427817 33.6049894 2.17290711 37.25849186 1 41 C-0.08993319 38.87904892 -1.09619724 36.76733691 -2.0078125 34.5625 C-4.40632676 29.06101275 -6.33927184 25.89181233 -11.99609375 23.60546875 C-14.64726891 22.80443142 -17.24487922 22.27551208 -20 22 C-20 21.34 -20 20.68 -20 20 C-19.33613281 19.82984375 -18.67226563 19.6596875 -17.98828125 19.484375 C-10.73619952 17.58198191 -10.73619952 17.58198191 -5 13 C-2.96367574 8.78882603 -1.47698074 4.43094223 0 0 Z " fill="#FDD220" transform="translate(840,484)"/>
<path d="M0 0 C0.33 0 0.66 0 1 0 C1.2475 1.19625 1.495 2.3925 1.75 3.625 C3.14812367 9.12040278 5.38747876 12.76487735 9.9375 16.25 C12.5924176 17.76709577 15.12173646 18.98414228 18 20 C16.00624241 21.99375759 14.72058684 22.64570975 12.1875 23.75 C5.47757511 27.04418414 2.56043973 32.26200071 0 39 C-1.15928912 36.68142176 -2.27262599 34.37685487 -3.3125 32 C-6.05715288 27.12061711 -9.7229718 24.67320406 -15 23 C-16.9924325 22.62406934 -18.9918674 22.28020455 -21 22 C-21 21.34 -21 20.68 -21 20 C-20.10796875 19.69707031 -19.2159375 19.39414063 -18.296875 19.08203125 C-17.12640625 18.66308594 -15.9559375 18.24414062 -14.75 17.8125 C-13.00976562 17.20341797 -13.00976562 17.20341797 -11.234375 16.58203125 C-5.8701277 13.95821464 -3.78512963 10.13874007 -1.75 4.6875 C-1.24726563 3.36298828 -1.24726563 3.36298828 -0.734375 2.01171875 C-0.49203125 1.34785156 -0.2496875 0.68398437 0 0 Z " fill="#45E7FD" transform="translate(314,215)"/>
<path d="M0 0 C-4.03148015 1.34382672 -6.6094427 -0.07292014 -10.4375 -1.4375 C-17.23907464 -3.70751879 -23.79221557 -5.32455457 -31 -4 C-39.5472291 0.40908936 -44.38609487 9.98586008 -48.9296875 18.17578125 C-50.68846044 21.17339791 -52.66821385 24.02125492 -54.6328125 26.88671875 C-55.92082282 28.87761471 -56.9827633 30.86074686 -58 33 C-59.85059216 36.78164484 -61.80881061 40.40644941 -64 44 C-69.43956989 53.3971812 -69.43956989 53.3971812 -74.5 63 C-75.6776105 65.35522099 -76.90098275 67.64228485 -78.1875 69.9375 C-80.88633584 74.75451306 -83.47765972 79.62605439 -86.05737305 84.50756836 C-87.67617191 87.56044921 -89.32509664 90.58642252 -91.0546875 93.578125 C-92.839303 96.71732816 -94.4752081 99.88269175 -96.0625 103.125 C-97.49326303 106.0472481 -98.93207168 108.88706093 -100.609375 111.67578125 C-103.06440853 115.7789974 -104 119.22721147 -104 124 C-103.01 124.33 -102.02 124.66 -101 125 C-102.485 125.99 -102.485 125.99 -104 127 C-104.43321432 129.35300453 -104.43321432 129.35300453 -104.328125 132.09375 C-104.32296875 133.125 -104.3178125 134.15625 -104.3125 135.21875 C-104.291875 136.3015625 -104.27125 137.384375 -104.25 138.5 C-104.24484375 139.551875 -104.2396875 140.60375 -104.234375 141.6875 C-104.17014061 148.17517382 -103.7736692 154.55875409 -103 161 C-110.37100095 149.94349858 -108.44870611 130.85184014 -107 118 C-105.42464346 111.8003092 -102.17444168 106.80925283 -98.63476562 101.55371094 C-95.66689152 96.91751572 -93.19753654 92.00499799 -90.64477539 87.13186646 C-89.04908776 84.09915447 -87.4219577 81.08343752 -85.796875 78.06640625 C-83.40540075 73.61911051 -81.02053829 69.16833785 -78.640625 64.71484375 C-68.12456912 45.09474252 -57.17266631 25.64932158 -45 7 C-44.29230469 5.906875 -43.58460938 4.81375 -42.85546875 3.6875 C-31.5927887 -12.85119651 -16.0117105 -6.84231447 0 0 Z " fill="#4D3CC6" transform="translate(328,496)"/>
<path d="M0 0 C3.71888239 0.50712033 6.73454239 1.11608215 10 3 C9.401875 3.185625 8.80375 3.37125 8.1875 3.5625 C5.68241094 4.90957603 5.68241094 4.90957603 4.7265625 8.1953125 C3.00747291 12.41627687 0.42557353 15.17072606 -2.8125 18.3125 C-3.32103516 18.83650391 -3.82957031 19.36050781 -4.35351562 19.90039062 C-7.68618686 23.19927051 -10.38863959 24.75068108 -15 26 C-16.35113205 26.97581759 -17.68946944 27.97029741 -19 29 C-19.66 29 -20.32 29 -21 29 C-21.66 32.3 -22.32 35.6 -23 39 C-22.34 39.33 -21.68 39.66 -21 40 C-22.28965176 41.37562854 -23.62689293 42.70766393 -25 44 C-25.66 44 -26.32 44 -27 44 C-26.32493045 40.92127372 -25.62519248 37.85126433 -24.89453125 34.78515625 C-24.31252156 32.32241654 -23.76621633 29.85087284 -23.26171875 27.37109375 C-21.14926188 18.25048614 -17.50356009 12.66663514 -10 7 C-6.09436545 4.87054599 -2.24818205 3.31491349 2 2 C1.34 1.34 0.68 0.68 0 0 Z " fill="#FDCA41" transform="translate(782,513)"/>
<path d="M0 0 C0.33 0 0.66 0 1 0 C1.61502015 30.6874786 2.10315769 61.36834906 2.125 92.0625 C2.12749756 93.30667694 2.12999512 94.55085388 2.13256836 95.83273315 C2.1383898 99.33773684 2.13701826 102.84265189 2.1328125 106.34765625 C2.13479645 107.38862457 2.1367804 108.4295929 2.13882446 109.50210571 C2.13571259 110.45153046 2.13260071 111.4009552 2.12939453 112.37915039 C2.12859894 113.20411514 2.12780334 114.0290799 2.12698364 114.87904358 C2 117 2 117 1 120 C4.9560449 116.60410305 6.68423541 112.9108354 8.75 108.25 C9.44875718 106.71794439 10.14932366 105.18671287 10.8515625 103.65625 C11.20637695 102.88023437 11.56119141 102.10421875 11.92675781 101.3046875 C13.58320184 97.74762845 15.35072703 94.24937934 17.125 90.75 C21.38500157 82.30788572 25.55252411 73.81200612 29 65 C29.99 65 30.98 65 32 65 C22.11213533 86.5635808 11.71007721 107.83382407 1 129 C0.67 129 0.34 129 0 129 C0 86.43 0 43.86 0 0 Z " fill="#1193FC" transform="translate(222,469)"/>
<path d="M0 0 C0.66 0 1.32 0 2 0 C2.02539086 7.15331259 2.0428841 14.30661352 2.05493164 21.45996094 C2.05995504 23.89258254 2.06677491 26.32520114 2.07543945 28.7578125 C2.08759226 32.25782007 2.09324832 35.75778765 2.09765625 39.2578125 C2.10281754 40.34240753 2.10797882 41.42700256 2.11329651 42.54446411 C2.1136614 47.47502938 2.0557706 52.15587607 1 57 C1.99 57 2.98 57 4 57 C3.67657623 57.94359879 3.35315247 58.88719757 3.01992798 59.85939026 C1.66377669 64.63938008 1.69252838 69.31025028 1.68115234 74.24975586 C1.67110672 75.25539581 1.6610611 76.26103577 1.65071106 77.29714966 C1.61995512 80.60304217 1.6028649 83.90885396 1.5859375 87.21484375 C1.56721977 89.51413158 1.5476459 91.81341258 1.5272522 94.11268616 C1.47598909 100.15092948 1.4363321 106.18919505 1.39910889 112.22753906 C1.35903282 118.39458699 1.30795689 124.5615428 1.2578125 130.72851562 C1.16112208 142.81894565 1.07669519 154.90942776 1 167 C0.67 167 0.34 167 0 167 C0 111.89 0 56.78 0 0 Z " fill="#4FCAFA" transform="translate(221,405)"/>
<path d="M0 0 C2 1 2 1 3.25 3.9375 C4.74725985 7.26948869 4.74725985 7.26948869 8.1875 8.375 C9.115625 8.58125 10.04375 8.7875 11 9 C11 9.66 11 10.32 11 11 C9.3603125 11.556875 9.3603125 11.556875 7.6875 12.125 C4.45411511 13.4798799 4.01423545 13.97658038 2.0625 17.1875 C1.5365625 18.5796875 1.5365625 18.5796875 1 20 C0.4225 19.236875 -0.155 18.47375 -0.75 17.6875 C-3.8031852 14.0406399 -6.26045416 11.84634747 -11 11 C-11 10.34 -11 9.68 -11 9 C-9.39125 8.443125 -9.39125 8.443125 -7.75 7.875 C-3.59695744 6.13122757 -2.1541217 3.87741907 0 0 Z " fill="#B44EFA" transform="translate(329,774)"/>
<path d="M0 0 C0.33 0 0.66 0 1 0 C1 1.98 1 3.96 1 6 C1.66 6 2.32 6 3 6 C3.07516846 7.28910278 3.07516846 7.28910278 3.15185547 8.60424805 C4.14282813 25.43617711 5.22464521 42.2285633 7 59 C1.02668066 53.17984269 1.02668066 53.17984269 0.91821289 48.38330078 C0.93196886 46.82059319 0.95046169 45.25792302 0.97265625 43.6953125 C0.98532293 41.97916883 0.99768233 40.26302287 1.00976562 38.546875 C1.03437992 35.85051266 1.06213291 33.15427103 1.09594727 30.45800781 C1.20553125 21.13560365 1.29694314 12.1863467 -0.66235352 3.01513672 C-0.77377686 2.3501416 -0.8852002 1.68514648 -1 1 C-0.67 0.67 -0.34 0.34 0 0 Z " fill="#FDD863" transform="translate(766,449)"/>
<path d="M0 0 C1.17784509 2.85558955 1.03723039 3.90469545 -0.109375 6.83984375 C-0.65078125 7.86207031 -1.1921875 8.88429688 -1.75 9.9375 C-2.28109375 10.95714844 -2.8121875 11.97679687 -3.359375 13.02734375 C-4.41220196 14.93496594 -5.49953505 16.82417294 -6.62890625 18.6875 C-9.06264684 22.79227045 -10 26.23566752 -10 31 C-9.01 31.33 -8.02 31.66 -7 32 C-7.99 32.66 -8.98 33.32 -10 34 C-10.43321432 36.35300453 -10.43321432 36.35300453 -10.328125 39.09375 C-10.32296875 40.125 -10.3178125 41.15625 -10.3125 42.21875 C-10.291875 43.3015625 -10.27125 44.384375 -10.25 45.5 C-10.24484375 46.551875 -10.2396875 47.60375 -10.234375 48.6875 C-10.17014061 55.17517382 -9.7736692 61.55875409 -9 68 C-14.09928991 60.35106513 -13.64118108 51.11745083 -13.75 42.25 C-13.76012115 41.51478119 -13.77024231 40.77956238 -13.78067017 40.02206421 C-13.85677439 27.42295016 -11.56024853 18.20555605 -4.18505859 7.74462891 C-2.51924265 5.29223485 -1.25478279 2.68048284 0 0 Z " fill="#6033D7" transform="translate(234,589)"/>
<path d="M0 0 C0.2475 0.5775 0.495 1.155 0.75 1.75 C2.97636479 5.75745663 5.80471463 8.20202055 10 10 C9.0925 10.391875 8.185 10.78375 7.25 11.1875 C3.85881606 13.0787372 2.20967163 14.8554673 0 18 C-0.20625 17.21625 -0.4125 16.4325 -0.625 15.625 C-1.79029933 12.7054215 -1.79029933 12.7054215 -5 11.8125 C-5.99 11.544375 -6.98 11.27625 -8 11 C-8.66 10.34 -9.32 9.68 -10 9 C-8.63875 8.443125 -8.63875 8.443125 -7.25 7.875 C-3.54887824 5.73973745 -2.11346343 3.65791748 0 0 Z " fill="#1FD8FC" transform="translate(283,264)"/>
<path d="M0 0 C2 3 2 3 3.3125 5.5625 C5.28307298 8.40888319 6.73535101 9.02942868 10 10 C7.66785852 11.20628008 5.50357861 12.1654738 3 13 C2.19787372 14.87387216 2.19787372 14.87387216 1.8125 17.0625 C1.57466797 18.16271484 1.57466797 18.16271484 1.33203125 19.28515625 C1.22246094 19.85105469 1.11289062 20.41695312 1 21 C-1 18 -1 18 -2.375 15.5 C-4.01605808 12.97529526 -5.50310264 11.63589827 -8 10 C-7.05125 9.278125 -6.1025 8.55625 -5.125 7.8125 C-2.32587438 5.50190102 -1.01482442 3.55188548 0 0 Z " fill="#FDCE1B" transform="translate(836,540)"/>
<path d="M0 0 C0.33 0 0.66 0 1 0 C1 21.78 1 43.56 1 66 C0.01 66.495 0.01 66.495 -1 67 C-2.73061359 44.6189567 -1.25108072 22.36938457 0 0 Z " fill="#E48213" transform="translate(803,575)"/>
<path d="M0 0 C0.66 0.33 1.32 0.66 2 1 C-0.2185271 6.17656323 -2.85637543 9.29718656 -7 13 C-7.66 13 -8.32 13 -9 13 C-9 13.66 -9 14.32 -9 15 C-10.65 15.33 -12.3 15.66 -14 16 C-14 16.66 -14 17.32 -14 18 C-14.99 18 -15.98 18 -17 18 C-15.0264626 10.72520522 -10.2939583 5.95605129 -4.14453125 1.72265625 C-2.5625 0.875 -2.5625 0.875 0 0 Z " fill="#FDD86C" transform="translate(778,517)"/>
<path d="M0 0 C-0.99 0 -1.98 0 -3 0 C-3.04125 0.66 -3.0825 1.32 -3.125 2 C-4.79817755 7.73660873 -7.81718352 11.68973417 -12.9609375 14.77734375 C-15.05348757 15.81348537 -17.16385722 16.81466778 -19.29296875 17.7734375 C-22.13522431 18.97325318 -22.13522431 18.97325318 -25 21 C-25.33 20.01 -25.66 19.02 -26 18 C-25.01 18 -24.02 18 -23 18 C-23 17.34 -23 16.68 -23 16 C-21.35 15.67 -19.7 15.34 -18 15 C-18 14.34 -18 13.68 -18 13 C-16.77204377 11.86829687 -15.49148743 10.79318994 -14.1875 9.75 C-10.67421316 6.79339593 -8.90539294 4.21192124 -7 0 C-3.86650268 -1.04449911 -3.01031744 -0.93423645 0 0 Z " fill="#FDD156" transform="translate(787,517)"/>
<path d="M0 0 C0.99 0.33 1.98 0.66 3 1 C0.54732365 2.53068488 -1.91133894 4.04968623 -4.375 5.5625 C-5.07367187 6.00013672 -5.77234375 6.43777344 -6.4921875 6.88867188 C-8.29185903 7.98750978 -10.14322343 9.00067867 -12 10 C-12.66 9.67 -13.32 9.34 -14 9 C-12.68 8.34 -11.36 7.68 -10 7 C-10 6.34 -10 5.68 -10 5 C-13.12594462 5.80889499 -16.25058269 6.62272738 -19.375 7.4375 C-20.70917969 7.78264648 -20.70917969 7.78264648 -22.0703125 8.13476562 C-22.92109375 8.35712891 -23.771875 8.57949219 -24.6484375 8.80859375 C-25.43395996 9.01282959 -26.21948242 9.21706543 -27.02880859 9.42749023 C-29.05189813 9.95094933 -29.05189813 9.95094933 -31 11 C-31.66 10.34 -32.32 9.68 -33 9 C-29.68329622 7.13052116 -26.48687526 6.32089957 -22.7734375 5.52734375 C-21.5771875 5.26759766 -20.3809375 5.00785156 -19.1484375 4.74023438 C-17.90320313 4.47533203 -16.65796875 4.21042969 -15.375 3.9375 C-12.90314614 3.40727209 -10.43176502 2.87483394 -7.9609375 2.33984375 C-6.31810791 1.98974243 -6.31810791 1.98974243 -4.64208984 1.63256836 C-2.04255555 1.1157212 -2.04255555 1.1157212 0 0 Z " fill="#FC9F49" transform="translate(755,694)"/>
<path d="M0 0 C4.10839064 1.45002023 7.50344613 3.3979134 11 6 C11 6.66 11 7.32 11 8 C-17.13833922 8.61993893 -17.13833922 8.61993893 -25 4 C-21.54863267 2.84144242 -19.15709529 3.19721154 -15.625 3.9375 C-8.72247152 5.20722437 -1.99658796 5.18629968 5 5 C3.35 3.35 1.7 1.7 0 0 Z " fill="#D24F2A" transform="translate(619,701)"/>
<path d="M0 0 C0.66 0.33 1.32 0.66 2 1 C-3.42173913 5.66521739 -3.42173913 5.66521739 -6.375 7.375 C-9.68536017 9.42427058 -12.32612261 11.9853158 -15.1328125 14.671875 C-15.74898438 15.11015625 -16.36515625 15.5484375 -17 16 C-17.99 15.67 -18.98 15.34 -20 15 C-19.64822478 12.31145798 -19.31669248 11.25664836 -17.17407227 9.52026367 C-16.39604248 9.07400635 -15.6180127 8.62774902 -14.81640625 8.16796875 C-13.54893555 7.43610352 -13.54893555 7.43610352 -12.25585938 6.68945312 C-11.36705078 6.19380859 -10.47824219 5.69816406 -9.5625 5.1875 C-8.67755859 4.67251953 -7.79261719 4.15753906 -6.88085938 3.62695312 C-2.01179479 0.85681509 -2.01179479 0.85681509 0 0 Z " fill="#3AF6F9" transform="translate(386,248)"/>
<path d="M0 0 C-4.75 4 -4.75 4 -7 4 C-7.66 7.3 -8.32 10.6 -9 14 C-8.34 14.33 -7.68 14.66 -7 15 C-8.28965176 16.37562854 -9.62689293 17.70766393 -11 19 C-11.66 19 -12.32 19 -13 19 C-12.57372794 16.93515022 -12.13348551 14.87318179 -11.6875 12.8125 C-11.44386719 11.66394531 -11.20023438 10.51539063 -10.94921875 9.33203125 C-10.02057697 6.0722311 -8.97330886 3.74180854 -7 1 C-2.65882353 -1.32941176 -2.65882353 -1.32941176 0 0 Z " fill="#FCC52F" transform="translate(768,538)"/>
<path d="M0 0 C1.32 0.66 2.64 1.32 4 2 C3.42636719 2.49242187 2.85273438 2.98484375 2.26171875 3.4921875 C-0.66166533 6.73366001 -2.31998262 10.20776843 -4.1875 14.125 C-4.54263672 14.85332031 -4.89777344 15.58164062 -5.26367188 16.33203125 C-6.18233864 18.2181744 -7.09180473 20.10879246 -8 22 C-8.33 22.66 -8.66 23.32 -9 24 C-9.66 24 -10.32 24 -11 24 C-9.53535546 19.05394907 -7.41781701 14.7983685 -4.9375 10.3125 C-2.15217401 5.30290526 -2.15217401 5.30290526 0 0 Z " fill="#B648EC" transform="translate(358,655)"/>
<path d="M0 0 C0.33 0 0.66 0 1 0 C1 1.98 1 3.96 1 6 C1.66 6 2.32 6 3 6 C4.09945892 16.01292948 4.10055982 25.94401799 4 36 C3.67 36 3.34 36 3 36 C2.9498877 35.36610352 2.89977539 34.73220703 2.84814453 34.07910156 C1.67117292 18.41834102 1.67117292 18.41834102 -0.73046875 2.9140625 C-0.81941406 2.28242188 -0.90835938 1.65078125 -1 1 C-0.67 0.67 -0.34 0.34 0 0 Z " fill="#FCC810" transform="translate(766,449)"/>
<path d="M0 0 C0.33 0 0.66 0 1 0 C1.06058594 1.07378906 1.12117187 2.14757812 1.18359375 3.25390625 C1.26807651 4.69011315 1.35272054 6.12631058 1.4375 7.5625 C1.47681641 8.26697266 1.51613281 8.97144531 1.55664062 9.69726562 C1.76348184 13.14992275 2.06999227 16.36585148 2.72265625 19.77734375 C3 23 3 23 0 27 C0 18.09 0 9.18 0 0 Z " fill="#FBD446" transform="translate(768,469)"/>
<path d="M0 0 C0.66 0.66 1.32 1.32 2 2 C1.67 2.70125 1.34 3.4025 1 4.125 C-0.09295056 7.26723285 -0.07335281 9.69912374 0 13 C-0.33 13.66 -0.66 14.32 -1 15 C-1.66 15 -2.32 15 -3 15 C-3.33 11.7 -3.66 8.4 -4 5 C-3.34 5 -2.68 5 -2 5 C-1.34 3.35 -0.68 1.7 0 0 Z " fill="#7DE8FC" transform="translate(294,359)"/>
<path d="M0 0 C0.66 0.33 1.32 0.66 2 1 C1.71898437 1.55816406 1.43796875 2.11632812 1.1484375 2.69140625 C0.37032602 4.25556913 -0.39495015 5.82617123 -1.1484375 7.40234375 C-3.38295269 12.02081622 -5.53697306 16.15219229 -9 20 C-8.40440894 15.13127946 -6.27522585 11.40671159 -3.9375 7.1875 C-3.56044922 6.49462891 -3.18339844 5.80175781 -2.79492188 5.08789062 C-1.86916148 3.38871015 -0.93537688 1.69390575 0 0 Z " fill="#422DC4" transform="translate(257,547)"/>
<path d="M0 0 C0.66 0.33 1.32 0.66 2 1 C1.34 1.66 0.68 2.32 0 3 C-0.6425235 5.06874034 -0.6425235 5.06874034 -1 7 C-1.66 7 -2.32 7 -3 7 C-3 7.66 -3 8.32 -3 9 C-4.32 9 -5.64 9 -7 9 C-7.33 9.99 -7.66 10.98 -8 12 C-8.66 12 -9.32 12 -10 12 C-8.52278578 8.54798361 -6.56205999 6.35038064 -3.875 3.75 C-3.15054688 3.04359375 -2.42609375 2.3371875 -1.6796875 1.609375 C-1.12539063 1.07828125 -0.57109375 0.5471875 0 0 Z " fill="#FEE18B" transform="translate(772,520)"/>
<path d="M0 0 C1.09375 3.7421875 1.09375 3.7421875 0.25 6.0625 C-1 8 -1 8 -2.4375 9.375 C-4.21943126 11.06690135 -4.21943126 11.06690135 -5.5 14 C-6.80741164 16.61482328 -7.81846673 18.13011434 -10 20 C-9.46323088 14.9738891 -7.05581499 11.37760591 -4.4375 7.1875 C-4.01275391 6.49462891 -3.58800781 5.80175781 -3.15039062 5.08789062 C-2.10690544 3.38783049 -1.05434704 1.69334524 0 0 Z " fill="#4636C7" transform="translate(279,509)"/>
<path d="M0 0 C5.4877539 1.16760721 9.24679766 3.28288639 13.7890625 6.5625 C16.11389333 8.07405079 18.40063623 9.05146024 21 10 C21 10.66 21 11.32 21 12 C15.84313143 10.53005148 11.65471168 8.21589873 7.125 5.4375 C6.43664062 5.02564453 5.74828125 4.61378906 5.0390625 4.18945312 C3.33910553 3.15902286 1.66662278 2.08351684 0 1 C0 0.67 0 0.34 0 0 Z " fill="#CC2B81" transform="translate(478,653)"/>
<path d="M0 0 C0.66 0.33 1.32 0.66 2 1 C-0.64 7.6 -3.28 14.2 -6 21 C-6.33 21 -6.66 21 -7 21 C-6.33844731 13.39214401 -3.4620342 6.7532954 0 0 Z " fill="#26C2FC" transform="translate(292,438)"/>
<path d="M0 0 C4.8603687 1.5194373 8.06079356 4.32918654 11.8125 7.625 C12.7087207 8.3984375 12.7087207 8.3984375 13.62304688 9.1875 C15.08712409 10.45246272 16.54427155 11.72543834 18 13 C17.01 13.33 16.02 13.66 15 14 C13.24884832 12.41792503 11.49905722 10.83438771 9.75 9.25 C8.77546875 8.36828125 7.8009375 7.4865625 6.796875 6.578125 C4.4719203 4.43501033 2.21417093 2.25634562 0 0 Z " fill="#CA207C" transform="translate(521,627)"/>
<path d="M0 0 C0.66 0.33 1.32 0.66 2 1 C-0.31 6.28 -2.62 11.56 -5 17 C-5.33 17 -5.66 17 -6 17 C-5.62964591 10.21017493 -3.59523599 5.73115109 0 0 Z " fill="#25D0FC" transform="translate(310,395)"/>
<path d="M0 0 C0.66 0.33 1.32 0.66 2 1 C-0.31 5.62 -2.62 10.24 -5 15 C-5.66 14.67 -6.32 14.34 -7 14 C-7 10 -7 10 -5.1875 8.125 C-4.465625 7.42375 -3.74375 6.7225 -3 6 C-1.93988057 4.03120677 -0.92529151 2.03564133 0 0 Z " fill="#258EFA" transform="translate(230,579)"/>
<path d="M0 0 C2 1 2 1 3.03515625 4.08984375 C3.37417969 5.35957031 3.71320312 6.62929688 4.0625 7.9375 C5.22845426 12.58258219 5.22845426 12.58258219 7 17 C6.34 17.66 5.68 18.32 5 19 C4.16338138 16.2092793 3.33057263 13.41751988 2.5 10.625 C2.26152344 9.8309375 2.02304687 9.036875 1.77734375 8.21875 C1.55175781 7.45820313 1.32617188 6.69765625 1.09375 5.9140625 C0.88427734 5.2123291 0.67480469 4.5105957 0.45898438 3.78759766 C0 2 0 2 0 0 Z " fill="#96E549" transform="translate(650,343)"/>
<path d="M0 0 C0.66 0.33 1.32 0.66 2 1 C-0.64960955 4.63094642 -3.01824456 6.89851796 -7 9 C-6.4568634 5.19804378 -4.84334437 3.49869657 -2 1 C-1.34 0.67 -0.68 0.34 0 0 Z " fill="#FEDE79" transform="translate(778,517)"/>
<path d="M0 0 C-0.33 0.99 -0.66 1.98 -1 3 C-3.64 3.33 -6.28 3.66 -9 4 C-9.33 2.68 -9.66 1.36 -10 0 C-3.375 -1.125 -3.375 -1.125 0 0 Z " fill="#6EEAFC" transform="translate(321,343)"/>
<path d="M0 0 C0.99 0.33 1.98 0.66 3 1 C1.23268551 2.3172344 -0.53897761 3.62863588 -2.3125 4.9375 C-3.29863281 5.66839844 -4.28476562 6.39929688 -5.30078125 7.15234375 C-8 9 -8 9 -11 10 C-11 9.34 -11 8.68 -11 8 C-8.69921875 6.01953125 -8.69921875 6.01953125 -5.6875 3.8125 C-4.70136719 3.07644531 -3.71523438 2.34039062 -2.69921875 1.58203125 C-1.36310547 0.79892578 -1.36310547 0.79892578 0 0 Z " fill="#28DCFC" transform="translate(390,320)"/>
<path d="M0 0 C3.83663072 1.34929464 6.65172569 3.07751025 9.8125 5.625 C10.99779297 6.57246094 10.99779297 6.57246094 12.20703125 7.5390625 C12.79871094 8.02117188 13.39039063 8.50328125 14 9 C13.67 9.66 13.34 10.32 13 11 C11.20386168 9.73549459 9.41322966 8.46316512 7.625 7.1875 C6.62726562 6.47980469 5.62953125 5.77210938 4.6015625 5.04296875 C2 3 2 3 0 0 Z " fill="#D63C2D" transform="translate(583,675)"/>
<path d="M0 0 C0.66 0.33 1.32 0.66 2 1 C-0.475 6.94 -0.475 6.94 -3 13 C-3.66 13 -4.32 13 -5 13 C-4.54554036 11.58208592 -4.08625056 10.16571954 -3.625 8.75 C-3.24214844 7.56664062 -3.24214844 7.56664062 -2.8515625 6.359375 C-2.04826333 4.13372042 -1.10288338 2.09068328 0 0 Z " fill="#1C99FD" transform="translate(262,510)"/>
<path d="M0 0 C3.47326585 1.15775528 3.91849562 2.13793148 6 5 C6.99 5.66 7.98 6.32 9 7 C8.67 8.32 8.34 9.64 8 11 C6.66666667 9.33333333 5.33333333 7.66666667 4 6 C3.2575 5.0925 2.515 4.185 1.75 3.25 C0 1 0 1 0 0 Z " fill="#5CF7B7" transform="translate(570,216)"/>
<path d="M0 0 C10.55808656 0.96355353 10.55808656 0.96355353 15 2 C15 2.33 15 2.66 15 3 C13.25034642 3.05429959 11.50020213 3.09292823 9.75 3.125 C8.77546875 3.14820313 7.8009375 3.17140625 6.796875 3.1953125 C3.9803502 2.99862781 2.39050964 2.44568916 0 1 C0 0.67 0 0.34 0 0 Z " fill="#FB4FCA" transform="translate(508,734)"/>
<path d="M0 0 C-1.26538369 0.84158536 -2.53753779 1.67299748 -3.8125 2.5 C-4.87404297 3.19609375 -4.87404297 3.19609375 -5.95703125 3.90625 C-8 5 -8 5 -11 5 C-11 4.34 -11 3.68 -11 3 C-10.01 3 -9.02 3 -8 3 C-8 2.34 -8 1.68 -8 1 C-3.375 -1.125 -3.375 -1.125 0 0 Z " fill="#FECF52" transform="translate(772,532)"/>
<path d="M0 0 C1.28485596 5.13942384 0.22194431 6.37835584 -2 11 C-2.99 10.67 -3.98 10.34 -5 10 C-3.35 6.7 -1.7 3.4 0 0 Z " fill="#5843CF" transform="translate(234,589)"/>
<path d="M0 0 C0.66 0.33 1.32 0.66 2 1 C-1.56430755 4.14985318 -4.40693504 6.5140084 -9 8 C-7.94660446 4.72276944 -6.36236741 3.39539906 -3.5 1.6875 C-2.345 1.130625 -1.19 0.57375 0 0 Z " fill="#25F5F7" transform="translate(386,248)"/>
<path d="M0 0 C1.31223496 3.93670488 0.24296256 6.12488144 -1 10 C-1.66 10 -2.32 10 -3 10 C-3.33 8.02 -3.66 6.04 -4 4 C-3.34 4 -2.68 4 -2 4 C-1.34 2.68 -0.68 1.36 0 0 Z " fill="#C640EC" transform="translate(290,766)"/>
<path d="M0 0 C1.64826111 2.96687001 2.44271087 5.65626525 3 9 C1.68 8.67 0.36 8.34 -1 8 C-0.67 5.36 -0.34 2.72 0 0 Z " fill="#CF51F4" transform="translate(287,735)"/>
<path d="M0 0 C0.33 0.99 0.66 1.98 1 3 C1.66 3.33 2.32 3.66 3 4 C1.71034824 5.37562854 0.37310707 6.70766393 -1 8 C-1.66 8 -2.32 8 -3 8 C-1.125 1.125 -1.125 1.125 0 0 Z " fill="#FCB621" transform="translate(758,549)"/>
<path d="M0 0 C4.10958767 1.45044271 7.43258745 3.51110752 11 6 C10.01 6.495 10.01 6.495 9 7 C5.38337216 5.19168608 2.74395564 2.94721162 0 0 Z " fill="#972BD3" transform="translate(402,539)"/>
<path d="M0 0 C0.66 0.33 1.32 0.66 2 1 C-0.68841859 3.25245881 -2.64641875 4.88213958 -6 6 C-6 5.01 -6 4.02 -6 3 C-4.03533587 1.93224776 -2.03144641 0.93446535 0 0 Z " fill="#FDC531" transform="translate(775,532)"/>
<path d="M0 0 C0.33 0 0.66 0 1 0 C1 1.98 1 3.96 1 6 C1.66 6 2.32 6 3 6 C2.67 8.31 2.34 10.62 2 13 C1.67 13 1.34 13 1 13 C0.63901937 11.02206479 0.28638652 9.04260427 -0.0625 7.0625 C-0.25972656 5.96035156 -0.45695313 4.85820312 -0.66015625 3.72265625 C-0.77230469 2.82417969 -0.88445313 1.92570312 -1 1 C-0.67 0.67 -0.34 0.34 0 0 Z " fill="#FBD220" transform="translate(766,449)"/>
<path d="M0 0 C-0.33 0.99 -0.66 1.98 -1 3 C-3.97 2.505 -3.97 2.505 -7 2 C-7 1.34 -7 0.68 -7 0 C-3.86650268 -1.04449911 -3.01031744 -0.93423645 0 0 Z " fill="#B05DF5" transform="translate(325,783)"/>
<path d="M0 0 C0.66 0.33 1.32 0.66 2 1 C0.66666667 3.66666667 -0.66666667 6.33333333 -2 9 C-2.66 9 -3.32 9 -4 9 C-2.80100302 5.9168649 -1.52299523 2.93720508 0 0 Z " fill="#4936C0" transform="translate(257,547)"/>
<path d="M0 0 C0.33 0 0.66 0 1 0 C1 2.64 1 5.28 1 8 C-0.65 8.66 -2.3 9.32 -4 10 C-3.71125 9.46375 -3.4225 8.9275 -3.125 8.375 C-1.83288192 5.64719516 -0.91441408 2.87387282 0 0 Z " fill="#60F4FB" transform="translate(289,319)"/>
</svg>
